<svg xmlns="http://www.w3.org/2000/svg" width="29" height="13" viewBox="0 0 29 13" fill="none">
  <path fill-rule="evenodd" clip-rule="evenodd" d="M5.81902 2.07582C5.4925 2.47844 4.97008 2.796 4.44765 2.75064C4.38235 2.20625 4.63812 1.62784 4.93743 1.27058C5.26394 0.856622 5.83535 0.561745 6.29791 0.539062C6.35233 1.10613 6.1401 1.66186 5.81902 2.07582ZM6.29243 2.85821C5.83218 2.8306 5.41223 3.00244 5.07302 3.14124C4.85473 3.23055 4.66988 3.30619 4.52924 3.30619C4.37142 3.30619 4.17894 3.22651 3.96283 3.13705C3.67965 3.01982 3.35589 2.8858 3.01638 2.89223C2.23818 2.90357 1.51441 3.3629 1.11714 4.09442C0.300852 5.55746 0.904908 7.72366 1.69399 8.91451C2.08037 9.50426 2.54293 10.1507 3.15243 10.128C3.42057 10.1175 3.61346 10.0322 3.81308 9.94394C4.04289 9.84232 4.28163 9.73676 4.65441 9.73676C5.01426 9.73676 5.24256 9.83957 5.46171 9.93826C5.67009 10.0321 5.8702 10.1222 6.16727 10.1167C6.79853 10.1054 7.1958 9.52694 7.58217 8.93719C7.99914 8.30423 8.18237 7.68648 8.21018 7.59274L8.21344 7.58189C8.21277 7.5812 8.20762 7.57874 8.19853 7.57441C8.05915 7.50791 6.99378 6.99969 6.98356 5.63685C6.9733 4.49294 7.82858 3.91337 7.96322 3.82213C7.97141 3.81658 7.97694 3.81283 7.97943 3.81088C7.43524 2.97162 6.5863 2.88089 6.29243 2.85821ZM10.6623 10.0544V1.21375H13.8459C15.4893 1.21375 16.6376 2.39326 16.6376 4.11715C16.6376 5.84104 15.4676 7.03188 13.8023 7.03188H11.9793V10.0544H10.6623ZM11.9793 2.37036H13.4976C14.6404 2.37036 15.2934 3.00548 15.2934 4.12261C15.2934 5.23973 14.6404 5.88052 13.4922 5.88052H11.9793V2.37036ZM20.9858 8.99373C20.6375 9.68555 19.8702 10.1222 19.043 10.1222C17.8186 10.1222 16.9642 9.36232 16.9642 8.21684C16.9642 7.0827 17.7914 6.43057 19.3206 6.33417L20.964 6.2321V5.74442C20.964 5.02424 20.5124 4.63296 19.7069 4.63296C19.043 4.63296 18.5587 4.99022 18.4607 5.5346H17.2744C17.3125 4.38912 18.3465 3.55553 19.745 3.55553C21.2525 3.55553 22.232 4.37778 22.232 5.65369V10.0541H21.013V8.99373H20.9858ZM19.3967 9.07355C18.6947 9.07355 18.2484 8.72196 18.2484 8.18325C18.2484 7.62752 18.6783 7.30429 19.5001 7.25325L20.964 7.15685V7.65587C20.964 8.48379 20.2892 9.07355 19.3967 9.07355ZM26.2754 10.4007C25.7475 11.9488 25.1434 12.4591 23.8591 12.4591C23.7612 12.4591 23.4347 12.4478 23.3585 12.4251V11.3647C23.4401 11.376 23.6415 11.3874 23.7449 11.3874C24.3271 11.3874 24.6537 11.1322 24.855 10.4687L24.9747 10.0774L22.7435 3.64121H24.1204L25.6713 8.86392H25.6985L27.2495 3.64121H28.5882L26.2754 10.4007Z" fill="#FEFEFE"/>
</svg>