<svg width="75" height="122" viewBox="0 0 75 122" fill="none" xmlns="http://www.w3.org/2000/svg">
<path d="M41.218 63.2351C44.0617 63.0554 46.6963 61.715 48.4471 59.4602C48.5255 59.3619 48.3664 59.2551 48.2931 59.351C43.9303 64.9638 35.1333 63.7313 30.8745 58.6534C29.3447 56.8278 28.5168 54.5217 28.5308 52.142C28.534 52.02 28.3422 52.0062 28.342 52.1278C28.2944 58.8478 34.8359 63.6357 41.218 63.2351Z" fill="#BF4D20"/>
<path d="M24.7729 115.175C27.4817 115.552 30.3968 115.733 33.0232 114.815C33.1385 114.776 33.0539 114.602 32.9393 114.643C30.3478 115.55 27.4608 115.358 24.7839 114.986C24.6622 114.966 24.6516 115.158 24.7729 115.175Z" fill="#BF4D20"/>
<path d="M25.0468 113.929C27.3819 114.726 29.9628 114.566 32.1615 113.436C32.2696 113.378 32.1883 113.207 32.0789 113.264C29.9249 114.372 27.4016 114.529 25.1101 113.749C24.9939 113.709 24.931 113.888 25.0468 113.929Z" fill="#BF4D20"/>
<path d="M25.7441 113.099C27.4773 113.685 29.3174 113.467 30.7127 112.233C30.8042 112.154 30.6807 112.006 30.5896 112.088C29.2433 113.28 27.4775 113.483 25.8073 112.919C25.6897 112.88 25.6264 113.06 25.7441 113.099Z" fill="#BF4D20"/>
<path d="M29.4966 111.416C28.3359 111.95 27.0323 112.114 25.7837 111.831C25.6648 111.803 25.6016 111.983 25.721 112.01C27.0216 112.305 28.3696 112.144 29.578 111.587C29.691 111.535 29.6068 111.364 29.4966 111.416Z" fill="#BF4D20"/>
<path d="M28.7147 110.206C28.8226 110.144 28.74 109.973 28.6335 110.034C27.8375 110.493 26.9809 110.745 26.0609 110.586C25.9401 110.564 25.927 110.754 26.0463 110.777C26.9985 110.941 27.8956 110.682 28.7147 110.206Z" fill="#BF4D20"/>
<path d="M27.5594 109.255C26.9438 109.533 26.301 109.579 25.6369 109.493C25.5151 109.477 25.5033 109.668 25.6238 109.684C26.3204 109.774 26.9995 109.717 27.643 109.427C27.7553 109.373 27.6724 109.203 27.5594 109.255Z" fill="#BF4D20"/>
<path d="M25.5761 108.592C26.1209 108.772 26.6915 108.669 27.1197 108.276C27.2123 108.193 27.0864 108.049 26.995 108.131C26.6173 108.478 26.1233 108.568 25.6393 108.412C25.5196 108.374 25.4559 108.555 25.5761 108.592Z" fill="#BF4D20"/>
<path d="M25.9565 107.513C26.071 107.553 26.1339 107.374 26.0193 107.334C25.7499 107.239 25.4685 107.15 25.2607 106.949C25.1746 106.864 25.0285 106.986 25.1169 107.072C25.35 107.303 25.6505 107.405 25.9565 107.513Z" fill="#BF4D20"/>
<path d="M17.0298 103.151C16.9419 103.236 17.0641 103.38 17.154 103.297C17.5269 102.944 17.9764 102.699 18.5011 102.739C18.6243 102.747 18.638 102.559 18.5152 102.55C17.9431 102.508 17.439 102.763 17.0298 103.151Z" fill="#BF4D20"/>
<path d="M15.6582 102.512C15.5487 102.575 15.6308 102.748 15.7368 102.683C16.5462 102.215 17.4145 101.97 18.3536 102.014C18.476 102.02 18.4891 101.829 18.3668 101.823C17.3959 101.781 16.4918 102.027 15.6582 102.512Z" fill="#BF4D20"/>
<path d="M14.161 101.745C15.5089 101.519 16.869 101.396 18.2296 101.287C18.3505 101.277 18.3117 101.089 18.1917 101.101C16.8314 101.209 15.4726 101.333 14.1248 101.558C14.005 101.577 14.0413 101.764 14.161 101.745Z" fill="#BF4D20"/>
<path d="M12.5679 100.913C13.8719 100.812 15.1758 100.764 16.4842 100.82C16.606 100.824 16.6202 100.63 16.4966 100.628C15.1714 100.571 13.8503 100.624 12.5333 100.725C12.4095 100.735 12.447 100.923 12.5679 100.913Z" fill="#BF4D20"/>
<path d="M14.2526 111.686C12.5967 111.17 11.0481 110.336 9.65532 109.312C8.19191 108.24 6.85725 106.877 6.09462 105.215C6.04375 105.102 5.87383 105.187 5.92288 105.297C6.66382 106.913 7.92931 108.218 9.31829 109.297C10.7673 110.423 12.4378 111.32 14.1893 111.866C14.3081 111.903 14.371 111.724 14.2526 111.686Z" fill="#BF4D20"/>
<path d="M14.2883 110.822C14.4061 110.849 14.4713 110.672 14.3511 110.643C11.5933 110.043 9.60052 107.929 7.88109 105.825C7.80326 105.733 7.65815 105.856 7.73423 105.949C9.47619 108.077 11.4973 110.216 14.2883 110.822Z" fill="#BF4D20"/>
<path d="M14.9803 109.31C15.1034 109.318 15.1171 109.126 14.993 109.121C12.8004 109.002 11.1517 107.221 10.016 105.501C9.94841 105.395 9.80249 105.521 9.86969 105.623C11.0338 107.387 12.7349 109.188 14.9803 109.31Z" fill="#BF4D20"/>
<path d="M15.6362 108.136C14.2374 107.625 13.0961 106.707 12.1435 105.577C12.0641 105.481 11.921 105.607 11.9985 105.7C12.9709 106.858 14.1439 107.795 15.5731 108.316C15.6885 108.358 15.7518 108.178 15.6362 108.136Z" fill="#BF4D20"/>
<path d="M16.4541 107.34C15.4042 106.955 14.5687 106.269 13.7922 105.476C13.7071 105.388 13.5628 105.513 13.6478 105.601C14.444 106.415 15.3131 107.122 16.3904 107.522C16.5059 107.564 16.5691 107.383 16.4541 107.34Z" fill="#BF4D20"/>
<path d="M17.5533 106.515C16.8312 106.252 16.1336 105.906 15.5439 105.411C15.4501 105.331 15.3425 105.489 15.4354 105.566C16.0373 106.072 16.7536 106.428 17.4906 106.694C17.6038 106.738 17.667 106.558 17.5533 106.515Z" fill="#BF4D20"/>
<path d="M18.186 105.936C17.6822 105.506 17.1255 105.162 16.5554 104.825C16.4516 104.762 16.3423 104.92 16.4464 104.982C17.0167 105.319 17.5734 105.663 18.0759 106.093C18.172 106.173 18.2788 106.014 18.186 105.936Z" fill="#BF4D20"/>
<path d="M18.7424 105.048C18.46 104.942 18.2285 104.743 17.9442 104.635C17.8298 104.59 17.766 104.772 17.8805 104.816C18.1628 104.923 18.3969 105.122 18.6786 105.23C18.7933 105.274 18.8568 105.093 18.7424 105.048Z" fill="#BF4D20"/>
<path d="M27.4676 105.961C27.1034 105.669 26.7806 105.328 26.4977 104.958C26.4242 104.861 26.2795 104.987 26.3539 105.081C26.6455 105.463 26.9825 105.816 27.3579 106.117C27.4559 106.192 27.5621 106.039 27.4676 105.961Z" fill="#BF4D20"/>
<path d="M28.9909 106.227C28.3953 105.708 27.7656 105.145 27.0212 104.856C26.9059 104.814 26.843 104.993 26.9583 105.036C27.6848 105.319 28.3031 105.878 28.8823 106.383C28.9749 106.462 29.0837 106.305 28.9909 106.227Z" fill="#BF4D20"/>
<path d="M27.8203 104.803C29.2998 105.733 30.8951 106.534 32.1344 107.786C32.2221 107.874 32.3675 107.75 32.2824 107.662C31.0279 106.398 29.425 105.586 27.9309 104.645C27.8277 104.58 27.7189 104.737 27.8203 104.803Z" fill="#BF4D20"/>
<path d="M23.2605 104.648C23.2236 104.532 23.0517 104.614 23.0879 104.729C23.1549 104.925 23.2928 105.027 23.3949 105.196C23.6027 105.55 23.0719 105.628 22.902 105.633C22.7016 105.639 22.5036 105.615 22.304 105.588C21.3185 105.454 20.5066 104.818 19.9632 104.013C19.894 103.908 19.7509 104.034 19.8169 104.136C20.4988 105.146 21.5162 105.757 22.7396 105.821C23.1579 105.842 23.5443 105.882 23.5929 105.365C23.6268 105.047 23.3549 104.923 23.2605 104.648Z" fill="#BF4D20"/>
<path d="M42.6133 63.7082C38.732 65.5737 36.0983 69.4366 34.1016 73.1042C33.0242 75.0766 32.0977 77.1269 31.1949 79.1861C30.2391 81.3681 29.2539 83.5452 28.3777 85.7622C26.0184 91.7352 24.3141 98.0541 23.8296 104.472C23.8186 104.596 24.01 104.61 24.0197 104.486C24.4591 98.652 25.9247 92.9282 27.9401 87.4472C28.8134 85.0695 29.8454 82.7629 30.8544 80.4416C31.7668 78.3389 32.6888 76.2372 33.7359 74.1979C35.782 70.2122 38.5155 65.8883 42.6962 63.8787C42.8064 63.8268 42.7263 63.6562 42.6133 63.7082Z" fill="#BF4D20"/>
<path d="M37.7785 64.5162C38.1559 65.725 37.2374 66.9229 36.4414 67.7195C36.3555 67.807 36.4786 67.9519 36.5652 67.8663C37.3764 67.0506 38.197 65.9626 38.0231 64.742C37.8991 63.8669 37.1934 63.2345 36.4208 62.9052C35.3541 62.4471 34.125 62.5398 33.2486 63.1304C33.1542 63.0689 33.0085 63.0769 32.9593 63.2172L32.8881 63.4197C32.4904 63.8032 32.2062 64.3184 32.1135 64.9609C32.0356 65.485 32.1004 66.0254 32.2112 66.5394C32.2351 66.6567 32.4234 66.6239 32.3958 66.501C32.2393 65.7587 32.2175 64.9588 32.5022 64.2771C32.4969 64.3768 32.5003 64.4758 32.5111 64.5741C32.5359 64.8176 32.9122 64.7448 32.8844 64.5018C32.8609 64.2787 32.8669 63.9354 33.0959 63.8109C33.0989 63.8103 33.1003 63.8064 33.1024 63.8045C33.1405 63.7886 33.1748 63.7552 33.193 63.7036L33.3194 63.3436C33.3301 63.3132 33.3323 63.2868 33.3317 63.2601C34.0455 62.7782 35.0004 62.713 35.8203 62.9076C36.6688 63.1094 37.5062 63.6527 37.7785 64.5162Z" fill="#BF4D20"/>
<path d="M38.0074 61.3856C38.1288 61.4023 38.1389 61.2125 38.0194 61.1943C35.4115 60.8114 32.6441 59.5656 31.4969 57.045C31.4459 56.9326 31.2736 57.0164 31.325 57.1278C32.5038 59.7114 35.3312 60.9916 38.0074 61.3856Z" fill="#BF4D20"/>
<path d="M34.9103 58.767C34.8269 58.6782 34.6818 58.8012 34.7664 58.8906C37.3972 61.6288 42.662 61.4496 45.3867 58.9469C45.4778 58.8646 45.3544 58.7207 45.2632 58.803C42.6191 61.2296 37.472 61.4319 34.9103 58.767Z" fill="#BF4D20"/>
<path d="M42.9618 58.52C43.074 58.4661 42.9889 58.2936 42.8817 58.3493C40.0842 59.7586 36.3928 59.497 34.3389 56.9486C34.2606 56.8532 34.1169 56.9767 34.1935 57.0726C36.2985 59.6848 40.0916 59.9673 42.9618 58.52Z" fill="#BF4D20"/>
<path d="M38.2993 56.6428C42.4346 58.3188 47.2855 55.5286 49.9673 52.4511C50.0481 52.358 49.889 52.2512 49.8116 52.3428C47.1788 55.3612 42.411 58.1039 38.3631 56.4613C38.2477 56.4152 38.1845 56.5953 38.2993 56.6428Z" fill="#BF4D20"/>
<path d="M27.6939 49.1293C27.6637 49.0099 27.4763 49.0441 27.506 49.165C27.6333 49.6766 27.7094 50.1966 27.9307 50.6821C27.9846 50.7944 28.1545 50.7094 28.1034 50.6013C27.8898 50.1301 27.8156 49.6246 27.6939 49.1293Z" fill="#BF4D20"/>
<path d="M44.5724 63.1177C41.8004 64.8695 39.7068 67.4198 37.2962 69.6042C37.2051 69.6864 37.3297 69.8308 37.4196 69.7481C39.8144 67.5764 41.8979 65.0308 44.6541 63.2878C44.7568 63.225 44.6762 63.0519 44.5724 63.1177Z" fill="#BF4D20"/>
<path d="M49.3109 58.9293C49.453 58.5649 49.775 58.252 50.1235 58.0733C50.2314 58.0195 50.1495 57.846 50.04 57.9042C49.6452 58.102 49.2909 58.4544 49.1321 58.8665C49.0877 58.9807 49.2665 59.0435 49.3109 58.9293Z" fill="#BF4D20"/>
<path d="M53.2418 56.9411C53.2821 56.8264 53.3266 56.736 53.4403 56.6781C53.5479 56.6214 53.4654 56.4494 53.3569 56.5046C53.1981 56.5903 53.1197 56.7131 53.0618 56.8779C53.0211 56.9938 53.2011 57.0571 53.2418 56.9411Z" fill="#BF4D20"/>
<path d="M62.7681 38.3416C61.1856 43.2465 59.072 47.9477 56.0114 52.1159C56.4541 51.4353 56.8786 50.7459 57.2878 50.048C59.458 46.3452 61.3332 42.4071 62.7681 38.3416ZM59.4347 45.6182C57.7213 49.0633 55.8026 52.485 53.3507 55.4714C53.3571 55.3929 53.2392 55.33 53.1782 55.4108C52.9598 55.6904 52.7481 55.9752 52.4963 56.2249C52.4287 56.2928 52.4898 56.3966 52.5637 56.3955C52.2591 56.7355 51.9512 57.0644 51.6312 57.3917C52.5364 56.2036 53.3789 54.9603 54.2096 53.7388C54.1843 53.8067 54.2397 53.8543 54.2954 53.8568C54.1769 54.0372 54.0589 54.2163 53.9369 54.3983C53.8686 54.5002 54.0243 54.6085 54.0925 54.507C56.1771 51.3823 58.1437 48.1665 59.8281 44.8161C59.6951 45.086 59.5681 45.3512 59.4347 45.6182ZM28.2749 92.5738C26.8527 96.7279 25.9708 100.29 25.8083 102.956C25.6766 102.904 25.3111 102.777 24.9585 102.657C24.9581 99.8071 25.6451 96.9004 26.3917 94.235C27.5825 89.9743 29.2457 85.8547 31.0293 81.8149C31.8486 79.9612 32.6451 78.0758 33.5936 76.2892C34.7259 74.1564 36.1965 72.2243 37.8663 70.4859C41.0347 67.1827 44.8694 64.6162 48.3046 61.6123C49.7338 60.3618 51.0922 59.0311 52.3369 57.5931C52.4168 57.5024 52.2588 57.3927 52.1792 57.4825C49.0605 61.0872 45.2044 63.8554 41.5521 66.8694C37.9608 69.8302 34.7984 73.1846 32.8088 77.4405C31.0736 81.1531 29.4128 84.9035 27.9917 88.7446C26.503 92.7703 25.1872 96.98 24.8544 101.278C24.8203 101.718 24.7993 102.16 24.7923 102.599C24.5421 102.514 24.3212 102.438 24.2396 102.405C24.2359 102.419 24.5447 102.535 24.7943 102.63C24.7799 103.798 24.8763 104.969 25.1476 106.106C25.1779 106.225 25.3658 106.189 25.3357 106.069C25.0701 104.965 24.9604 103.836 24.9588 102.693C25.0434 102.73 25.0991 102.752 25.0987 102.758C25.3174 102.851 25.5518 102.949 25.8033 103.059C25.7889 103.301 25.78 103.54 25.7811 103.762C25.7666 105.125 26.0205 106.186 26.3839 106.81C26.7417 107.434 27.0951 107.628 27.0807 107.637C27.0964 107.629 26.7473 107.423 26.4086 106.796C26.0659 106.169 25.843 105.112 25.8903 103.765C25.895 103.555 25.9081 103.336 25.9253 103.114C25.9901 103.143 26.0576 103.172 26.1289 103.203C27.0723 103.626 28.2153 104.169 29.4991 104.879C30.7795 105.59 32.209 106.461 33.6639 107.586C34.3884 108.149 35.1183 108.777 35.8048 109.5C36.4832 110.222 37.1399 111.043 37.551 111.999C37.7514 112.475 37.8802 112.994 37.8527 113.503C37.838 113.763 37.7872 114.008 37.6892 114.251C37.5973 114.48 37.4561 114.709 37.288 114.906C36.9431 115.308 36.4718 115.615 35.9565 115.85C35.4386 116.084 34.8752 116.247 34.2921 116.369C33.1244 116.605 31.8821 116.667 30.6207 116.638C29.3576 116.606 28.0679 116.477 26.765 116.272C24.1565 115.863 21.4973 115.171 18.8504 114.242C16.2093 113.314 13.6989 112.19 11.4097 110.88C10.2662 110.225 9.17764 109.519 8.17191 108.754C7.16958 107.988 6.24118 107.164 5.47416 106.251C5.09446 105.794 4.75736 105.312 4.49835 104.805C4.246 104.299 4.06712 103.766 4.04902 103.237C4.0265 102.713 4.17951 102.205 4.4803 101.788C4.77864 101.373 5.20113 101.048 5.65543 100.801C6.57607 100.31 7.60106 100.082 8.58418 99.9406C9.56971 99.8044 10.5325 99.7734 11.4498 99.7872C13.2918 99.8177 14.9508 100.031 16.395 100.277C17.8408 100.525 19.0723 100.816 20.0729 101.076C20.1477 101.097 20.2161 101.115 20.286 101.134C20.2187 101.245 20.149 101.355 20.0816 101.458C19.3466 102.584 18.5925 103.342 17.9807 103.703C17.3687 104.068 16.9703 104.075 16.9744 104.088C16.9703 104.075 17.3669 104.081 17.9966 103.73C18.6227 103.381 19.4044 102.637 20.1718 101.519C20.2509 101.407 20.3283 101.287 20.4091 101.166C20.5873 101.214 20.7562 101.261 20.9183 101.307C20.9334 101.284 22.0344 101.66 22.0501 101.636C21.8917 101.588 20.6391 101.135 20.4637 101.079C21.9166 98.8224 23.371 95.3576 24.7999 91.0595C25.1804 89.9115 25.564 88.7025 25.9474 87.4415C26.3423 86.1841 26.7138 84.8605 27.1601 83.5212C28.0305 80.8214 29.0483 77.9514 29.7599 74.8096C30.1113 73.2413 30.3709 71.5999 30.4486 69.9047C30.5288 68.2145 30.4212 66.4708 30.0957 64.7399C29.9378 63.8684 29.705 63.0171 29.4911 62.1603L28.8315 59.5722C28.3853 57.8344 27.9387 56.0737 27.5271 54.2856C26.6981 50.7061 26.0721 47.1725 25.9336 43.7251C25.7865 40.2817 26.1482 36.9482 26.9757 33.8952C27.3778 32.3635 27.9197 30.9212 28.4828 29.5152C29.0431 28.117 29.6165 26.7664 30.1928 25.4756C31.3509 22.8867 32.524 20.5209 33.6483 18.3869C33.9774 17.76 34.301 17.1566 34.6214 16.5747C34.6491 16.6325 34.6765 16.6916 34.7073 16.7449C34.835 16.9651 34.9791 17.1628 35.1369 17.3498C31.144 25.1433 28.491 33.5915 27.7401 42.3667C27.5897 44.1481 27.5206 45.9315 27.5266 47.7187C27.5251 47.8398 27.7165 47.8544 27.7151 47.7297C27.6915 37.1609 30.4878 26.8547 35.2667 17.4957C35.4297 17.6718 35.6005 17.8379 35.7739 18.0006C36.0996 18.2974 36.4476 18.5752 36.8059 18.8396C35.7712 21.0447 34.8711 23.314 34.0676 25.6059C32.235 30.8401 30.9079 36.238 29.7421 41.6517C29.6292 42.1705 29.5202 42.6864 29.4106 43.2037C29.3864 43.3211 29.5655 43.3868 29.5907 43.267C30.7234 37.8748 31.9932 32.5032 33.7107 27.2623C34.6327 24.4438 35.692 21.6448 36.9606 18.9548C36.9928 18.976 37.0241 18.9997 37.0571 19.0226C38.4167 19.9838 39.9115 20.8298 41.49 21.6189C40.9484 22.7624 40.3787 23.8933 39.7475 24.994C39.6854 25.0981 39.8437 25.2074 39.9044 25.1028C40.5396 23.995 41.1123 22.8554 41.6579 21.7006C42.1134 21.9298 42.5775 22.1508 43.0425 22.3692C45.1992 23.3685 47.4839 24.277 49.8582 25.0995C51.5136 25.6738 53.1599 26.1812 54.7877 26.6284C54.5822 27.9465 54.3265 29.2584 54.0146 30.5575C53.3603 33.2863 52.4489 35.9943 51.0571 38.4391C50.9963 38.5477 51.1531 38.6569 51.2135 38.5494C53.2585 34.9494 54.3826 30.8225 54.9953 26.6815C55.4063 26.7919 55.8198 26.9032 56.2275 27.0068C55.2889 33.7188 53.7596 40.3568 50.1484 46.2016C50.0835 46.3059 50.2421 46.414 50.3054 46.3104C53.9309 40.4451 55.4713 33.7874 56.4146 27.0499C56.5798 27.0909 56.7416 27.1336 56.9069 27.1704C57.3795 27.2827 57.8518 27.3877 58.3246 27.4873C58.0375 29.8431 57.6404 32.1858 57.1169 34.5022C56.1052 38.9817 54.6142 43.4529 52.1828 47.3758C50.9283 49.4014 49.3763 51.2635 47.4704 52.7073C47.3708 52.7856 47.4955 52.93 47.5943 52.8542C50.9582 50.3031 53.1726 46.5349 54.7693 42.693C56.5329 38.4567 57.5856 33.9288 58.2581 29.4001C58.35 28.7761 58.4363 28.1516 58.5088 27.5265C59.0089 27.6286 59.5055 27.7209 60 27.8069C59.9068 29.7033 59.6411 31.5957 59.2912 33.4416C58.5194 37.524 57.2264 41.5279 55.4735 45.295C53.1632 50.2587 49.7564 55.5455 44.6336 57.9541C44.5234 58.0059 44.6055 58.179 44.7162 58.1256C47.8909 56.6328 50.3769 53.9839 52.3598 51.1489C54.6818 47.8274 56.3959 44.082 57.6913 40.2525C58.7198 37.2193 59.4696 34.0854 59.8943 30.911C60.0283 29.8931 60.1303 28.8696 60.1839 27.839C60.2332 27.8478 60.2832 27.8583 60.3341 27.8663C60.8376 27.9469 61.3387 28.0182 61.8353 28.0781C61.7041 28.923 61.5509 29.7659 61.3843 30.6027C60.6679 34.157 59.6564 37.6532 58.4098 41.054C57.1043 44.6103 55.5171 48.0826 53.5179 51.3064C51.7261 54.1975 49.5588 56.9456 46.8147 58.9885C44.9084 60.4095 42.6918 61.4091 40.3171 61.675C40.1961 61.6894 40.2336 61.8766 40.3562 61.8617C46.9226 61.1297 51.5317 55.2425 54.577 49.8977C58.1433 43.6289 60.4953 36.5534 61.7945 29.471C61.8769 29.0148 61.953 28.5607 62.0244 28.1035C62.3324 28.1367 62.6337 28.1647 62.9385 28.1869C62.3914 30.5462 61.7235 32.8829 61.0766 35.1801C61.0365 35.1733 60.9936 35.1908 60.9781 35.2389C60.6117 36.3225 60.347 37.4387 59.9886 38.5278C59.6902 39.4258 59.3779 40.3189 59.0538 41.2095C58.3421 43.1556 57.5576 45.0795 56.6885 46.962C54.892 50.8531 52.6854 54.6758 49.6703 57.76C47.8735 59.598 45.7351 61.1281 43.2804 61.9439C43.1613 61.9811 43.2463 62.154 43.3621 62.114C47.0819 60.8774 49.9949 58.0519 52.2832 54.9633C54.3496 52.1803 55.9835 49.0862 57.3756 45.9077C57.3988 45.906 57.4221 45.8959 57.4385 45.8735C58.467 44.6645 59.1699 43.2187 59.7431 41.7438C60.0953 41.1476 60.4332 40.548 60.7503 39.9351C60.4651 40.6383 60.1656 41.338 59.8546 42.0304C59.8254 42.0329 59.7947 42.052 59.7805 42.0923C59.7355 42.2405 59.6851 42.3842 59.6333 42.5317C58.5872 44.8217 57.4161 47.0568 56.1307 49.2147C56.5915 48.3296 57.0384 47.4357 57.4807 46.5347C57.5348 46.425 57.3542 46.3633 57.3006 46.4715C56.399 48.31 55.4713 50.13 54.4534 51.8885C53.2337 53.7386 51.9213 55.5306 50.5326 57.2578C50.4547 57.3547 50.6125 57.4611 50.6903 57.3685C51.2567 56.6619 51.8074 55.9476 52.3483 55.2209C51.3026 56.7206 50.1503 58.1489 48.8436 59.4735C48.7574 59.562 48.8805 59.7068 48.9662 59.6198C51.2432 57.3124 53.0534 54.6952 54.6456 51.9334C56.0409 49.8168 57.3212 47.6212 58.4751 45.3664C57.3291 47.8361 55.9324 50.1942 54.7326 52.6441C53.4197 54.5503 52.1137 56.5612 50.6118 58.3773C49.8667 59.045 49.0686 59.6586 48.2091 60.1727C48.1059 60.237 48.1867 60.4096 48.2928 60.3452C48.8374 60.0188 49.3523 59.6521 49.8497 59.2628C48.4242 60.8449 46.816 62.2265 44.8683 63.1734C44.7561 63.2273 44.8399 63.3993 44.9488 63.3469C47.2767 62.2115 49.1286 60.4702 50.7558 58.503C51.62 57.7215 52.4194 56.8669 53.1681 55.9795C53.8235 55.2086 54.4378 54.4018 55.022 53.5761C55.0618 53.5956 55.1146 53.5942 55.1477 53.5522C59.5416 48.1126 62.1524 41.6369 63.9738 34.9447C63.993 34.8779 63.9431 34.8306 63.8879 34.8226C64.4167 32.9504 64.8241 31.0413 65.0757 29.1128C65.0945 28.9907 64.9031 28.9759 64.8868 29.0988C64.6758 30.7064 64.3576 32.2932 63.9564 33.8623C63.9359 33.7758 63.8018 33.7429 63.7744 33.845C62.0168 40.9599 58.5253 47.4021 54.5355 53.4913C54.6501 53.2415 54.771 52.994 54.8901 52.7475C54.9833 52.615 55.0759 52.4801 55.1658 52.3448C55.1991 52.2985 55.182 52.2544 55.1492 52.223C56.7467 49.0476 58.6261 46.0077 59.7975 42.6358C60.5209 41.0512 61.184 39.4411 61.7764 37.8065C63.1413 34.7457 64.1247 31.5226 64.8348 28.232C64.9987 28.2245 65.1635 28.2144 65.33 28.1994C65.445 28.186 65.5608 28.1744 65.6797 28.1539C64.8223 34.4817 63.3744 40.7268 60.607 46.4603C58.9394 49.9121 56.7073 53.1144 53.8288 55.6646C53.7364 55.7466 53.8598 55.8905 53.9506 55.8091C61.3892 49.2228 64.2058 38.9354 65.6512 29.4635C65.7195 29.0193 65.7828 28.5734 65.8469 28.1249C65.9459 28.1088 66.0454 28.0914 66.1445 28.0668C66.4157 27.9994 66.6868 27.9121 66.9459 27.7542C67.0597 27.6839 67.1725 27.5962 67.271 27.4851C67.1268 28.3184 66.9703 29.1828 66.7965 30.0764C66.3386 32.4515 65.7705 35.0396 65.0526 37.7887C64.6934 39.1657 64.296 40.5793 63.8534 42.0248C63.4128 43.4768 62.9264 44.9423 62.2756 46.3927C61.0027 49.3004 59.1821 52.1288 56.8996 54.7216C54.624 57.3268 51.9091 59.6931 49.0144 61.9715C47.5675 63.1113 46.109 64.2075 44.6742 65.2887L42.5323 66.9015C41.8299 67.4355 41.1096 67.9642 40.4477 68.5522C39.116 69.7183 37.9531 71.0242 36.9654 72.407C35.9774 73.7865 35.1635 75.2421 34.4604 76.6924C33.0671 79.6047 32.0677 82.4906 31.0566 85.1482C30.0237 87.7953 29.0497 90.2748 28.2749 92.5738ZM35.281 15.3849C35.4219 15.2817 35.5984 15.2022 35.7846 15.1431C35.9789 15.077 36.1843 15.036 36.3929 15.0018C36.0575 15.6024 35.7317 16.2079 35.4121 16.8198C35.3249 16.7058 35.2444 16.5926 35.177 16.4785C35.064 16.2889 34.9895 16.0901 34.9852 15.9132C35.0825 15.7367 35.1828 15.5598 35.281 15.3849ZM36.6183 14.972C37.3681 14.8789 38.1212 14.8931 38.8485 14.9364C38.2097 16.0344 37.6169 17.1585 37.0627 18.3019C36.7435 18.071 36.4401 17.8314 36.1525 17.5791C35.9328 17.3831 35.725 17.1815 35.5406 16.9696C35.8898 16.2974 36.2494 15.6317 36.6183 14.972ZM39.0606 14.9486C39.1032 14.9522 39.1474 14.9551 39.1913 14.9591C40.076 15.0294 40.9251 15.1409 41.7337 15.2707C42.5941 15.4103 43.4057 15.568 44.1704 15.7305C43.7912 16.5322 43.4343 17.3431 43.0716 18.1464C42.6406 19.1038 42.2099 20.0685 41.7666 21.0245C40.205 20.2639 38.7282 19.4511 37.3986 18.5372C37.3377 18.4974 37.2788 18.4555 37.2192 18.412C37.7879 17.2356 38.3981 16.0779 39.0606 14.9486ZM62.3541 25.5943C62.4129 25.028 62.4583 24.4598 62.4863 23.8926C62.5063 23.5135 62.5293 23.134 62.5522 22.7546C62.9712 22.9993 63.3883 23.2575 63.8105 23.5331C63.6284 24.8934 63.3717 26.2486 63.0729 27.5948C62.7577 27.5661 62.4395 27.5336 62.1177 27.4956C62.2089 26.8614 62.292 26.2301 62.3541 25.5943ZM64.8512 24.255C64.7147 25.3965 64.5438 26.5316 64.3392 27.6619C64.1312 27.6581 63.9224 27.6527 63.7111 27.6422C63.6154 27.6368 63.5197 27.6273 63.4219 27.6198C63.6651 26.3192 63.8793 25.0126 64.0585 23.7008C64.3216 23.878 64.5896 24.0613 64.8512 24.255ZM65.3114 24.6118C65.1511 25.6318 64.9677 26.6494 64.7604 27.6585C64.6874 27.6611 64.6114 27.6641 64.5362 27.6646C64.5895 27.3679 64.6423 27.0725 64.6918 26.7745C64.8231 25.9819 64.9342 25.1864 65.0322 24.3878C65.126 24.459 65.2176 24.5364 65.3114 24.6118ZM64.4257 28.2453C64.4958 28.243 64.5676 28.24 64.6389 28.2381C64.1668 30.4201 63.5727 32.5748 62.8264 34.6718C63.4717 32.5606 64.0111 30.4164 64.4257 28.2453ZM61.699 35.2402C62.3072 32.9083 62.8544 30.5688 63.312 28.2106C63.4364 28.2189 63.5616 28.2289 63.6852 28.2313C63.8674 28.2401 64.0488 28.243 64.2299 28.243C63.606 31.4975 62.7066 34.6948 61.568 37.808C61.1294 38.787 60.6511 39.7461 60.1309 40.6839C60.7524 38.9021 61.221 37.0684 61.699 35.2402ZM59.4752 41.9187C58.9921 43.1291 58.4059 44.3111 57.6183 45.3455C57.8429 44.8189 58.0622 44.2948 58.2762 43.7661C58.8118 42.4383 59.3086 41.0962 59.777 39.7463C59.9921 39.1257 60.1988 38.5011 60.4008 37.8776C60.6649 37.0692 60.8536 36.2377 61.1177 35.4294C61.1588 35.4411 61.2051 35.4264 61.2212 35.3724C61.8683 33.0625 62.541 30.7204 63.0932 28.3544C62.6556 30.5994 62.1333 32.8274 61.5531 35.0475C61.0559 36.9425 60.5714 38.8414 59.9278 40.6943C59.8184 41.0138 59.6984 41.3353 59.5756 41.6528C59.5422 41.7118 59.5101 41.7669 59.4775 41.8235C59.4547 41.8563 59.4596 41.8906 59.4752 41.9187ZM66.0341 25.2319C65.949 26.0138 65.8563 26.7973 65.756 27.5782C65.5995 27.601 65.4384 27.6208 65.2795 27.6343C65.1713 27.6444 65.0641 27.6477 64.9564 27.6524C65.1532 26.689 65.3266 25.7203 65.4814 24.7478C65.6688 24.9028 65.8562 25.0619 66.0341 25.2319ZM66.905 26.3241C67.0007 26.5189 67.0489 26.724 67.0108 26.8888C66.9754 27.0461 66.8541 27.186 66.6667 27.2927C66.4533 27.4172 66.1964 27.4924 65.9228 27.5463C66.0191 26.8291 66.1062 26.11 66.1882 25.3892C66.4727 25.6744 66.7383 25.9855 66.905 26.3241ZM31.502 85.3217C32.5556 82.672 33.5886 79.8071 34.994 76.9532C35.6992 75.5291 36.5098 74.1149 37.4828 72.7782C38.4526 71.4382 39.5897 70.1818 40.8902 69.0601C41.5325 68.4918 42.2319 67.9822 42.943 67.4474L45.0904 65.8435C46.532 64.767 47.9924 63.6694 49.4482 62.5244C52.3585 60.23 55.1023 57.8256 57.4048 55.1636C59.7148 52.5126 61.5519 49.6054 62.8167 46.628C63.465 45.1486 63.9471 43.6389 64.3683 42.1819C64.7963 40.7213 65.1762 39.2934 65.517 37.9081C66.1995 35.1351 66.7239 32.5303 67.1437 30.1389C67.9772 25.3613 68.3656 21.4485 68.5515 18.7445C68.6439 17.3456 68.6927 16.2723 68.7151 15.5561C68.7836 15.4698 68.8458 15.3771 68.8923 15.2689C69.0005 15.0212 69.0056 14.7331 68.9486 14.4967C68.8318 14.0116 68.5632 13.6528 68.2924 13.3285C67.7405 12.6892 67.1105 12.2035 66.4938 11.7606C65.8758 11.3215 65.258 10.9462 64.6562 10.6019C63.4546 9.91962 62.3292 9.38295 61.3276 8.94068C60.3277 8.49759 59.4536 8.15527 58.7329 7.88377C57.2918 7.34795 56.4778 7.1003 56.4792 7.09652C56.4778 7.1003 57.2767 7.39075 58.6946 7.98486C59.3984 8.28436 60.2562 8.66483 61.2357 9.14178C62.2123 9.6191 63.314 10.1913 64.4767 10.9037C65.0568 11.2616 65.657 11.6506 66.2505 12.0952C66.8371 12.5431 67.434 13.0384 67.925 13.6337C68.1637 13.9325 68.3817 14.2665 68.4506 14.6018C68.4846 14.7708 68.4754 14.9217 68.4106 15.0658C68.3516 15.1936 68.234 15.3192 68.0818 15.4143C67.7761 15.6081 67.3671 15.7134 66.9563 15.7757C66.5392 15.8399 66.1041 15.8625 65.6589 15.8617C63.8832 15.8477 62.0043 15.5273 60.0968 15.0992C58.1856 14.6614 56.2324 14.0857 54.267 13.3955C52.3041 12.7062 50.4198 11.9341 48.6558 11.0812C46.8978 10.2234 45.2337 9.29956 43.8392 8.20022C43.4933 7.92459 43.1654 7.63406 42.8804 7.32184C42.5975 7.01597 42.345 6.67978 42.2251 6.33644C42.1066 5.98931 42.1768 5.68869 42.4416 5.47051C42.708 5.25151 43.0868 5.12715 43.4587 5.04278C44.2142 4.8852 44.9897 4.87186 45.7267 4.89166C46.4674 4.91279 47.1783 4.98281 47.856 5.06666C49.2109 5.23983 50.4289 5.48087 51.4882 5.71853C52.5509 5.95877 53.4595 6.19867 54.1973 6.40544C55.674 6.82788 56.4778 7.1003 56.4792 7.09652C56.4778 7.1003 55.689 6.78507 54.228 6.3017C53.4971 6.06338 52.5984 5.78313 51.541 5.50372C50.4828 5.22261 49.2698 4.93944 47.9059 4.71928C47.2222 4.61212 46.5024 4.51916 45.7456 4.47541C44.9878 4.43417 44.1921 4.42062 43.3603 4.57402C42.9487 4.6586 42.5156 4.77238 42.1187 5.07708C41.9272 5.22764 41.7514 5.4544 41.6804 5.72084C41.6065 5.98766 41.6392 6.26504 41.7148 6.5009C41.8701 6.97691 42.1591 7.35419 42.4612 7.70214C42.7662 8.04971 43.1082 8.36074 43.4634 8.65804C44.1811 9.24813 44.9648 9.77934 45.7858 10.277C46.608 10.775 47.4687 11.24 48.3592 11.6843C50.1451 12.5674 52.0485 13.3575 54.0344 14.0578C56.0246 14.7539 58.0053 15.3279 59.9488 15.7544C60.9228 15.9649 61.8877 16.1412 62.8417 16.264C63.7935 16.389 64.7363 16.4669 65.6646 16.4535C66.129 16.444 66.5899 16.4164 67.047 16.3351C67.5016 16.2529 67.9605 16.1382 68.3798 15.8626C68.4877 15.7888 68.5929 15.7027 68.6836 15.5973C68.6397 16.3103 68.5667 17.368 68.441 18.7368C68.26 20.6858 67.9618 23.2627 67.4611 26.3355C67.4342 26.2511 67.4008 26.1729 67.3619 26.0985C67.1023 25.6014 66.7384 25.236 66.3779 24.8972C66.338 24.862 66.2963 24.8275 66.2576 24.7927C66.5286 22.2855 66.7291 19.7734 66.8963 17.2594C66.9038 17.1376 66.7132 17.1244 66.7045 17.2458C66.5451 19.6974 66.3556 22.1739 66.0966 24.6513C65.92 24.5016 65.7416 24.3612 65.5627 24.2262C65.8455 22.354 66.0557 20.4746 66.2093 18.6036C66.2192 18.4827 66.0304 18.4687 66.0213 18.5913C65.8692 20.4218 65.6638 22.2633 65.3896 24.099C65.29 24.0244 65.1907 23.9485 65.0905 23.8794C65.3119 21.912 65.427 19.937 65.4376 17.9578C65.4366 17.8358 65.2485 17.8235 65.2466 17.9459C65.24 19.8897 65.1212 21.8266 64.9098 23.7537C64.6464 23.5735 64.3824 23.4029 64.12 23.2358C64.2106 22.5549 64.2925 21.8708 64.3604 21.1861C64.3679 21.1123 64.3022 21.0779 64.2455 21.0905C64.3356 19.7263 64.3402 18.3602 64.23 16.9864C64.2206 16.8643 64.0334 16.9018 64.0416 17.0235C64.2059 19.0527 64.1178 21.0754 63.87 23.0858C63.4341 22.821 63.0021 22.5689 62.575 22.3354C62.6081 21.7177 62.6306 21.0976 62.6097 20.4807C62.604 20.3599 62.4139 20.3455 62.4174 20.4683C62.438 21.054 62.4252 21.6464 62.3963 22.2359C62.2102 22.1338 62.0239 22.0358 61.8431 21.9426C60.3807 21.1815 59.0226 20.5702 57.8179 20.058C56.6173 19.5501 55.5674 19.1446 54.7077 18.8258C52.9811 18.1925 52.0102 17.8925 52.012 17.8875C52.0102 17.8925 52.9666 18.2341 54.6647 18.928C55.5138 19.2771 56.548 19.7153 57.7315 20.2597C58.9112 20.8069 60.2458 21.4567 61.6757 22.2502C61.9062 22.3792 62.1396 22.5121 62.3746 22.6483C62.3457 23.1332 62.3122 23.6193 62.2872 24.1013C62.2467 24.7603 62.186 25.4164 62.11 26.0757C62.0587 26.54 61.9977 27.0037 61.9307 27.4681C61.4363 27.4019 60.9417 27.3244 60.4421 27.2367C60.3638 27.2261 60.2881 27.208 60.209 27.1958C60.2559 25.7131 60.1956 24.2295 59.9789 22.7645C59.9606 22.6435 59.7739 22.6798 59.7939 22.7999C60.0034 24.2412 60.0691 25.7012 60.0268 27.1629C59.5488 27.07 59.0688 26.975 58.5839 26.8697C58.7809 25.1286 58.9111 23.3767 58.9736 21.6279C58.9781 21.5064 58.7871 21.4945 58.7826 21.616C58.7202 23.3563 58.5907 25.0943 58.3975 26.8283C57.9551 26.731 57.5119 26.6277 57.0638 26.5184C56.8776 26.4728 56.6931 26.4221 56.5069 26.3723C56.7052 24.9017 56.8802 23.4286 57.0396 21.9599C57.053 21.8374 56.8612 21.8237 56.8495 21.9455C56.6894 23.4041 56.5171 24.8654 56.3228 26.3246C55.9139 26.2206 55.5038 26.1077 55.0928 25.9931C55.2551 24.7941 55.3763 23.5991 55.4648 22.4167C55.4752 22.2945 55.2864 22.2805 55.2768 22.4045C55.1845 23.5855 55.0559 24.7652 54.8882 25.9396C53.3046 25.4994 51.7046 24.9969 50.0895 24.4368C47.7312 23.6213 45.4635 22.7287 43.3244 21.7597C42.8552 21.5454 42.3932 21.3266 41.9371 21.107C42.3405 20.2402 42.7314 19.3648 43.1234 18.4941C43.5295 17.5915 43.9316 16.6762 44.3579 15.7723C44.956 15.9017 45.527 16.0358 46.0613 16.1654C47.3254 16.4806 48.4068 16.7841 49.2873 17.0395C51.049 17.5606 52.0102 17.8925 52.012 17.8875C52.0102 17.8925 51.0636 17.5191 49.319 16.9333C48.4483 16.6459 47.3742 16.3054 46.1167 15.9515C45.6028 15.8078 45.0522 15.6639 44.478 15.5189C44.9828 14.4643 45.5273 13.4293 46.1628 12.4573C46.232 12.3529 46.0729 12.2462 46.0063 12.3472C45.3591 13.3405 44.8078 14.3986 44.2922 15.472C43.5145 15.2823 42.6815 15.093 41.7936 14.9269C41.003 14.7779 40.1704 14.6439 39.2974 14.5523C39.7349 13.822 40.1887 13.1017 40.6709 12.397C40.9031 12.0542 41.1456 11.7179 41.3898 11.385C41.4615 11.2857 41.3041 11.1781 41.2316 11.2757C40.4636 12.327 39.7515 13.4163 39.085 14.5329C38.3846 14.4693 37.6568 14.4231 36.9002 14.4714C37.057 14.1941 37.2154 13.9202 37.3768 13.6459C38.1709 12.287 39.0097 10.9536 39.8814 9.64322C39.9477 9.53919 39.792 9.43076 39.7232 9.5339C38.6512 11.1488 37.6351 12.8017 36.6809 14.4877C36.585 14.495 36.4874 14.5032 36.3897 14.5155C36.1583 14.546 35.9285 14.5883 35.6945 14.6547C37.1317 12.137 38.4204 10.0862 39.4403 8.53929C40.9277 6.28532 41.8289 5.09269 41.8218 5.08878C41.8289 5.09269 40.8923 6.25731 39.3489 8.47746C38.2512 10.0565 36.8529 12.1777 35.298 14.7969C35.1578 14.8579 35.0206 14.9385 34.8864 15.0427C34.7709 15.1379 34.6605 15.259 34.5818 15.4067C34.5073 15.5502 34.4624 15.7226 34.4593 15.8842C34.4568 15.9879 34.4705 16.0818 34.4905 16.178C34.1125 16.8316 33.7269 17.5108 33.3378 18.2199C32.1733 20.3398 30.9602 22.6944 29.7579 25.2763C29.1578 26.5661 28.5644 27.9135 27.9837 29.3134C27.4042 30.7136 26.8305 32.1823 26.4046 33.7372C25.5295 36.8413 25.1307 40.2481 25.2646 43.7492C25.3862 47.2571 26.0097 50.8417 26.843 54.4415C27.2556 56.2427 27.7102 58.0089 28.1594 59.7462L28.8292 62.3294C29.0463 63.1891 29.2802 64.0254 29.4366 64.8647C29.7625 66.5465 29.8778 68.2317 29.8137 69.88C29.7517 71.5267 29.5124 73.1343 29.1803 74.6839C28.5146 77.7837 27.5376 80.6582 26.7016 83.3729C26.2708 84.7365 25.9223 86.0593 25.5487 87.3243C25.1846 88.5908 24.8268 89.7989 24.4656 90.952C23.1135 95.2815 21.7381 98.7669 20.3443 101.044C20.2638 101.02 20.1877 100.995 20.1024 100.972C19.1081 100.678 17.8828 100.349 16.436 100.059C14.9888 99.77 13.3237 99.5135 11.4613 99.4362C10.53 99.4019 9.55072 99.4115 8.5304 99.53C7.51603 99.6516 6.44782 99.8622 5.43207 100.378C4.92822 100.641 4.43515 100.994 4.0682 101.487C3.69903 101.979 3.49083 102.62 3.51064 103.252C3.52204 103.888 3.71862 104.5 3.99203 105.059C4.26748 105.619 4.62473 106.137 5.0217 106.625C5.81046 107.601 6.76154 108.461 7.78396 109.259C8.80913 110.057 9.91281 110.784 11.0732 111.463C13.3961 112.815 15.9387 113.96 18.6178 114.905C21.3035 115.844 24.0023 116.54 26.6636 116.935C27.9907 117.131 29.311 117.254 30.608 117.274C31.906 117.292 33.1848 117.21 34.4129 116.947C35.0296 116.81 35.6279 116.629 36.1936 116.363C36.7574 116.099 37.2927 115.742 37.698 115.257C37.9025 115.009 38.0641 114.738 38.18 114.436C38.2906 114.149 38.3551 113.833 38.3638 113.526C38.3833 112.911 38.2208 112.33 37.9928 111.812C37.5207 110.772 36.8174 109.939 36.1031 109.211C35.3817 108.482 34.6227 107.86 33.8749 107.308C32.3731 106.203 30.9112 105.36 29.6019 104.683C28.2938 104.006 27.1295 103.495 26.1722 103.104C26.0901 103.068 26.0113 103.038 25.9332 103.007C26.1482 100.361 27.1066 96.8226 28.6035 92.6892C29.4194 90.4101 30.4274 87.9669 31.502 85.3217Z" fill="#BF4D20"/>
</svg>
