<svg xmlns="http://www.w3.org/2000/svg" width="30" height="13" viewBox="0 0 30 13" fill="none">
  <path fill-rule="evenodd" clip-rule="evenodd" d="M14.2401 9.87053V6.36349H16.0501C16.7918 6.36349 17.4179 6.11496 17.9282 5.62481L18.0507 5.50054C18.983 4.48571 18.9217 2.90478 17.9282 1.96589C17.4315 1.46883 16.751 1.19959 16.0501 1.2134H13.1445V9.87053H14.2401ZM14.2403 5.29996V2.27618H16.0779C16.4726 2.27618 16.8469 2.42805 17.126 2.7042C17.7181 3.2841 17.7317 4.25061 17.16 4.85123C16.881 5.14808 16.4862 5.31377 16.0779 5.29996H14.2403ZM23.1612 4.40991C22.6917 3.97498 22.052 3.75407 21.2423 3.75407C20.2012 3.75407 19.4186 4.14067 18.9015 4.90697L19.8677 5.52139C20.2216 4.99672 20.7047 4.73438 21.3171 4.73438C21.705 4.73438 22.0792 4.87936 22.3718 5.14169C22.6576 5.39022 22.821 5.74921 22.821 6.12891V6.38435C22.3991 6.14962 21.8683 6.02536 21.2151 6.02536C20.4529 6.02536 19.8405 6.20485 19.3846 6.57074C18.9287 6.93664 18.6973 7.41989 18.6973 8.03431C18.6837 8.5935 18.9219 9.12508 19.3438 9.48407C19.7725 9.87067 20.3168 10.064 20.9565 10.064C21.7118 10.064 22.3106 9.7257 22.7665 9.04914H22.8142V9.87067H23.8621V6.21866C23.8621 5.45236 23.6307 4.84484 23.1612 4.40991ZM20.1876 8.78033C19.963 8.61464 19.8269 8.3454 19.8269 8.05545C19.8269 7.73098 19.9766 7.46174 20.2693 7.24773C20.5687 7.03371 20.943 6.92325 21.3854 6.92325C21.9979 6.91635 22.4743 7.05442 22.8146 7.33057C22.8146 7.80001 22.6309 8.20733 22.2702 8.55251C21.9435 8.88388 21.5011 9.07028 21.0383 9.07028C20.7321 9.07718 20.4326 8.97363 20.1876 8.78033ZM26.2162 12.4734L29.8771 3.94743H28.6863L26.9919 8.20006H26.9715L25.2363 3.94743H24.0455L26.4475 9.49103L25.0866 12.4734H26.2162Z" fill="#FEFEFE"/>
  <path d="M10.4579 5.60558C10.4579 5.26731 10.4307 4.92903 10.3762 4.59766H5.75586V6.50996H8.40288C8.29401 7.12438 7.94016 7.67667 7.42301 8.02185V9.2645H9.00169C9.92713 8.40155 10.4579 7.12438 10.4579 5.60558Z" fill="#4285F4"/>
  <path d="M5.75627 10.4652C7.07638 10.4652 8.19235 10.0233 9.00211 9.26394L7.42342 8.02129C6.98112 8.32505 6.41633 8.49764 5.75627 8.49764C4.47699 8.49764 3.39505 7.62088 3.00718 6.44727H1.38086V7.73134C2.21103 9.40892 3.9054 10.4652 5.75627 10.4652Z" fill="#34A853"/>
  <path d="M3.00779 6.44624C2.80362 5.83182 2.80362 5.16217 3.00779 4.54084V3.26367H1.38121C0.68022 4.66511 0.68022 6.32197 1.38121 7.72341L3.00779 6.44624Z" fill="#FBBC04"/>
  <path d="M5.75627 2.49127C6.45715 2.47746 7.13082 2.7467 7.63436 3.23686L9.03613 1.81471C8.14472 0.972473 6.97431 0.509931 5.75627 0.523738C3.9054 0.523738 2.21103 1.5869 1.38086 3.26447L3.00718 4.54855C3.39505 3.36803 4.47699 2.49127 5.75627 2.49127Z" fill="#EA4335"/>
</svg>