<svg xmlns="http://www.w3.org/2000/svg" width="16" height="16" viewBox="0 0 16 16" fill="none">
  <g clip-path="url(#clip0_1284_51936)">
    <path d="M15.7257 2.78541C15.1846 1.46865 14.2018 0.673737 12.798 0.408609C12.5847 0.368377 12.3676 0.351562 12.1505 0.351562H5.19928C4.55745 0.351562 3.90209 0.37055 3.29294 0.572728C3.24612 0.588267 3.19986 0.605149 3.15429 0.623705C1.82771 1.16285 1.02531 2.14901 0.769537 3.56209C0.727893 3.81238 0.708646 4.06589 0.712024 4.3196C0.707971 6.78228 0.707971 9.2459 0.712024 11.7104C0.712024 13.0576 1.24602 14.142 2.33459 14.9369C2.99343 15.4185 3.74346 15.6434 4.55708 15.6443C7.09052 15.6472 9.62397 15.6472 12.1574 15.6443C13.8534 15.6397 15.2987 14.5848 15.8196 12.979C15.8213 12.9739 15.823 12.9687 15.8246 12.9635C15.9966 12.4179 16.0067 11.8343 16.0067 11.2622V4.89068C16.0067 4.21898 15.9889 3.53103 15.7678 2.89677C15.7547 2.85924 15.7407 2.8221 15.7257 2.78541ZM14.7236 7.99585C14.7236 7.9974 14.7223 7.99866 14.7208 7.99866C14.7192 7.99866 14.718 7.99991 14.718 8.00146C14.718 9.3243 14.732 10.6476 14.7138 11.9704C14.6983 13.1156 13.7318 14.1747 12.5965 14.3304C12.4292 14.3539 12.2604 14.3659 12.0915 14.3664C9.59763 14.3686 7.10377 14.3686 4.60992 14.3664C3.50358 14.3664 2.70165 13.8591 2.21255 12.8701C2.06044 12.555 1.98346 12.209 1.98763 11.8591C1.98763 9.25603 1.97875 6.65291 1.99558 4.05026C2.00353 2.87706 2.96257 1.82964 4.12081 1.66551C4.26818 1.64331 4.41694 1.63159 4.56596 1.63044C7.09099 1.6281 9.61322 1.62296 12.1368 1.63044C13.2245 1.63418 14.0114 2.14761 14.494 3.11974C14.6722 3.47839 14.7278 3.8679 14.7245 4.26442C14.7217 5.5087 14.7236 6.75204 14.7236 7.99585ZM8.3811 4.17558C6.28532 4.14893 4.55241 5.85893 4.5323 7.97902C4.51266 10.072 6.21565 11.7932 8.32826 11.8203C10.4231 11.8479 12.1574 10.1342 12.1775 8.01689C12.1976 5.92393 10.4965 4.2027 8.3811 4.17558ZM8.34509 10.5433C8.01102 10.5426 7.68037 10.476 7.37206 10.3473C7.06376 10.2187 6.78386 10.0304 6.54837 9.79349C6.31288 9.55652 6.12643 9.27545 5.9997 8.96635C5.87296 8.65724 5.80842 8.32618 5.80978 7.99211C5.81002 7.65802 5.87614 7.32725 6.00434 7.01873C6.13255 6.71021 6.32033 6.43 6.55694 6.19413C6.79355 5.95826 7.07435 5.77136 7.38326 5.64411C7.69218 5.51687 8.02315 5.45179 8.35725 5.45259C8.69136 5.4524 9.02224 5.51809 9.33095 5.6459C9.63965 5.7737 9.92014 5.96111 10.1563 6.19741C10.3926 6.43371 10.5799 6.71426 10.7076 7.02302C10.8353 7.33177 10.9008 7.66267 10.9005 7.99679C10.9011 8.33211 10.8353 8.66423 10.707 8.97402C10.5786 9.28381 10.3903 9.56516 10.1528 9.80186C9.91523 10.0386 9.63323 10.2259 9.32299 10.3532C9.01275 10.4804 8.68041 10.5451 8.34509 10.5433ZM13.4531 3.85668C13.4515 4.10794 13.3511 4.34848 13.1736 4.52629C12.996 4.70409 12.7556 4.80487 12.5044 4.80684C12.3787 4.80845 12.254 4.78501 12.1374 4.73787C12.0209 4.69074 11.915 4.62085 11.8258 4.5323C11.7366 4.44376 11.6659 4.33832 11.6179 4.22216C11.5699 4.10599 11.5456 3.98143 11.5463 3.85574C11.5462 3.60436 11.6454 3.36311 11.8221 3.18435C11.9989 3.00558 12.239 2.90374 12.4903 2.90091C12.7443 2.90163 12.9877 3.00234 13.1679 3.18123C13.3481 3.36011 13.4505 3.60278 13.4531 3.85668Z" fill="#ACA7AA"/>
  </g>
  <defs>
    <clipPath id="clip0_1284_51936">
      <rect width="15.2933" height="15.2951" fill="white" transform="translate(0.707031 0.351562)"/>
    </clipPath>
  </defs>
</svg>