<svg width="24" height="24" viewBox="0 0 24 24" fill="none" xmlns="http://www.w3.org/2000/svg">
<path d="M13.7678 10.2322C14.7441 11.2085 14.7441 12.7915 13.7678 13.7678C12.7915 14.7441 11.2085 14.7441 10.2322 13.7678C9.25592 12.7915 9.25592 11.2085 10.2322 10.2322C11.2085 9.25592 12.7915 9.25592 13.7678 10.2322" stroke="#BF4D20" stroke-linecap="round" stroke-linejoin="round"/>
<path fill-rule="evenodd" clip-rule="evenodd" d="M20 18.666H4C2.895 18.666 2 17.771 2 16.666V7.33203C2 6.22703 2.895 5.33203 4 5.33203H20C21.105 5.33203 22 6.22703 22 7.33203V16.665C22 17.77 21.105 18.666 20 18.666V18.666Z" stroke="#BF4D20" stroke-linecap="round" stroke-linejoin="round"/>
<path d="M17 16C18.105 16 19 15.105 19 14" stroke="#BF4D20" stroke-linecap="round" stroke-linejoin="round"/>
<path d="M19 10C19 8.895 18.105 8 17 8" stroke="#BF4D20" stroke-linecap="round" stroke-linejoin="round"/>
<path d="M7 8C5.895 8 5 8.895 5 10" stroke="#BF4D20" stroke-linecap="round" stroke-linejoin="round"/>
<path d="M5 14C5 15.105 5.895 16 7 16" stroke="#BF4D20" stroke-linecap="round" stroke-linejoin="round"/>
</svg>
