<svg width="121" height="5" viewBox="0 0 121 5" fill="none" xmlns="http://www.w3.org/2000/svg">
<path id="Vector" d="M2.66485 3.33011C3.41419 3.82397 4.40941 4.09561 5.46786 4.09561C6.5263 4.09561 7.52152 3.82397 8.27086 3.33011L11.7085 1.06452C13.7715 -0.295155 17.1248 -0.295155 19.1878 1.06452L22.6559 3.35017C24.2014 4.36877 26.714 4.36877 28.2596 3.35017L31.7557 1.046C32.7556 0.386996 34.0834 0.024315 35.4954 0.024315C36.9074 0.024315 38.2352 0.386996 39.2351 1.046L42.6727 3.31159C43.422 3.80545 44.4173 4.07707 45.4757 4.07707C46.5341 4.07707 47.5294 3.80545 48.2787 3.31159L51.6882 1.06452C53.7512 -0.295155 57.1045 -0.295155 59.1676 1.06452L62.6052 3.33011C63.3545 3.82397 64.3498 4.09561 65.4082 4.09561C66.4666 4.09561 67.4619 3.82397 68.2112 3.33011L71.623 1.08149C73.6861 -0.278181 77.0394 -0.278181 79.1024 1.08149L82.5634 3.36253C83.3128 3.8564 84.308 4.12802 85.3664 4.12802C86.4249 4.12802 87.4201 3.8564 88.1695 3.36253L91.6398 1.07531C93.7029 -0.28436 97.0562 -0.28436 99.1192 1.07531L102.587 3.36099C104.133 4.37958 106.645 4.37958 108.191 3.36099L111.743 1.01975C113.806 -0.339918 117.16 -0.339918 119.223 1.01975L121 2.19113L120.061 2.81001L118.284 1.63863C117.534 1.14476 116.539 0.873145 115.481 0.873145C114.422 0.873145 113.427 1.14476 112.678 1.63863L109.125 3.97986C107.062 5.33953 103.709 5.33953 101.646 3.97986L98.1779 1.69419C96.6323 0.675591 94.1197 0.675591 92.5742 1.69419L89.1038 3.98139C88.0735 4.66045 86.7176 5 85.3641 5C84.0106 5 82.6548 4.66045 81.6244 3.98139L78.1634 1.70037C77.4141 1.2065 76.4188 0.934863 75.3627 0.934863C74.3066 0.934863 73.3091 1.2065 72.5597 1.70037L69.1479 3.94898C67.0848 5.30866 63.7315 5.30866 61.6685 3.94898L58.2309 1.68339C57.4816 1.18953 56.4863 0.917888 55.4279 0.917888C54.3694 0.917888 53.3742 1.18953 52.6249 1.68339L49.2154 3.93047C48.2155 4.58947 46.8877 4.95215 45.4757 4.95215C44.0637 4.95215 42.7359 4.58947 41.736 3.93047L38.2984 1.66487C36.7529 0.646276 34.2402 0.646276 32.6947 1.66487L29.1986 3.96905C27.1356 5.32872 23.7822 5.32872 21.7192 3.96905L18.2512 1.68339C17.5018 1.18953 16.5066 0.917888 15.4505 0.917888C14.3944 0.917888 13.3968 1.18953 12.6475 1.68339L9.20988 3.94898C7.14685 5.30866 3.79354 5.30866 1.73051 3.94898L0 2.80846L0.939019 2.18959L2.66953 3.33011H2.66485Z" fill="#BF4D20"/>
</svg>
