<svg width="24" height="24" viewBox="0 0 17 20" fill="none" xmlns="http://www.w3.org/2000/svg">
<path fill-rule="evenodd" clip-rule="evenodd" d="M12.9228 8.19977C12.5088 8.19977 12.1728 7.86377 12.1728 7.44977V5.30277C12.1728 3.20677 10.4678 1.50177 8.37176 1.50177H8.35576C7.34276 1.50177 6.39376 1.89177 5.67676 2.60277C4.95476 3.31677 4.55576 4.26977 4.55176 5.28577V7.44977C4.55176 7.86377 4.21576 8.19977 3.80176 8.19977C3.38776 8.19977 3.05176 7.86377 3.05176 7.44977V5.30277C3.05776 3.86277 3.61476 2.53377 4.61976 1.53777C5.62576 0.540767 6.95376 -0.0362332 8.37476 0.00176677C11.2948 0.00176677 13.6728 2.37977 13.6728 5.30277V7.44977C13.6728 7.86377 13.3368 8.19977 12.9228 8.19977Z" fill="#BF4D20"/>
<path fill-rule="evenodd" clip-rule="evenodd" d="M4.542 8.12891C2.864 8.12891 1.5 9.49291 1.5 11.1709V15.4599C1.5 17.1379 2.864 18.5019 4.542 18.5019H12.183C13.86 18.5019 15.225 17.1379 15.225 15.4599V11.1709C15.225 9.49291 13.86 8.12891 12.183 8.12891H4.542ZM12.183 20.0019H4.542C2.037 20.0019 0 17.9649 0 15.4599V11.1709C0 8.66591 2.037 6.62891 4.542 6.62891H12.183C14.688 6.62891 16.725 8.66591 16.725 11.1709V15.4599C16.725 17.9649 14.688 20.0019 12.183 20.0019Z" fill="#BF4D20"/>
<path fill-rule="evenodd" clip-rule="evenodd" d="M8.3623 15.1761C7.9483 15.1761 7.6123 14.8401 7.6123 14.4261V12.2051C7.6123 11.7911 7.9483 11.4551 8.3623 11.4551C8.7763 11.4551 9.1123 11.7911 9.1123 12.2051V14.4261C9.1123 14.8401 8.7763 15.1761 8.3623 15.1761Z" fill="#BF4D20"/>
</svg>
