<svg xmlns="http://www.w3.org/2000/svg" width="25" height="15" viewBox="0 0 25 15" fill="none">
  <path fill-rule="evenodd" clip-rule="evenodd" d="M12.5382 13.1851C11.2183 14.2977 9.5061 14.9693 7.63515 14.9693C3.46044 14.9693 0.0761719 11.6253 0.0761719 7.50027C0.0761719 3.37525 3.46044 0.03125 7.63515 0.03125C9.50613 0.03125 11.2183 0.702913 12.5383 1.81553C13.8582 0.702943 15.5704 0.0313003 17.4414 0.0313003C21.6161 0.0313003 25.0004 3.3753 25.0004 7.50032C25.0004 11.6254 21.6161 14.9693 17.4414 14.9693C15.5704 14.9693 13.8582 14.2977 12.5382 13.1851Z" fill="#ED0006"/>
  <path fill-rule="evenodd" clip-rule="evenodd" d="M12.5391 13.1851C14.1643 11.8151 15.1949 9.77661 15.1949 7.50027C15.1949 5.22394 14.1643 3.18544 12.5391 1.81549C13.859 0.702896 15.5712 0.03125 17.4422 0.03125C21.6169 0.03125 25.0011 3.37525 25.0011 7.50027C25.0011 11.6253 21.6169 14.9693 17.4422 14.9693C15.5712 14.9693 13.859 14.2977 12.5391 13.1851Z" fill="#F9A000"/>
  <path fill-rule="evenodd" clip-rule="evenodd" d="M12.5387 13.186C14.164 11.816 15.1946 9.77753 15.1946 7.50119C15.1946 5.22486 14.164 3.18636 12.5387 1.81641C10.9134 3.18636 9.88281 5.22486 9.88281 7.50119C9.88281 9.77753 10.9134 11.816 12.5387 13.186Z" fill="#FF5E00"/>
</svg>