<svg xmlns="http://www.w3.org/2000/svg" width="37" height="17" viewBox="0 0 37 17" fill="none">
  <path fill-rule="evenodd" clip-rule="evenodd" d="M20.0334 2.73647L17.4534 3.30646V1.15318L20.0334 0.59375V2.73647ZM25.3988 3.92912C24.3915 3.92912 23.7439 4.41466 23.3841 4.75243L23.2505 4.09801H20.9892V16.4055L23.5589 15.846L23.5691 12.8589C23.9392 13.1333 24.484 13.5239 25.3885 13.5239C27.2284 13.5239 28.9039 12.0039 28.9039 8.65789C28.8936 5.59686 27.1976 3.92912 25.3988 3.92912ZM24.782 11.2018C24.1756 11.2018 23.8158 10.9801 23.5691 10.7057L23.5588 6.78969C23.8261 6.48358 24.1961 6.27248 24.782 6.27248C25.7174 6.27248 26.3649 7.34911 26.3649 8.73186C26.3649 10.1463 25.7277 11.2018 24.782 11.2018ZM37.0036 8.76344C37.0036 6.06129 35.729 3.92912 33.2929 3.92912C30.8466 3.92912 29.3664 6.06129 29.3664 8.74233C29.3664 11.9195 31.1138 13.5239 33.6218 13.5239C34.845 13.5239 35.7701 13.2389 36.4691 12.8378V10.7267C35.7701 11.0856 34.9684 11.3073 33.9508 11.3073C32.9537 11.3073 32.0697 10.9484 31.9567 9.70286H36.983C36.983 9.64473 36.9867 9.51272 36.991 9.3606L36.991 9.36025V9.3602V9.3601L36.991 9.35984V9.35976V9.35958C36.9968 9.15284 37.0036 8.90921 37.0036 8.76344ZM31.9256 7.76082C31.9256 6.56807 32.6348 6.07197 33.2824 6.07197C33.9094 6.07197 34.5775 6.56807 34.5775 7.76082H31.9256ZM17.4531 4.1088H20.0331V13.3447H17.4531V4.1088ZM14.5241 4.10843L14.6886 4.88952C15.295 3.74955 16.4976 3.98177 16.8266 4.10843V6.53615C16.5079 6.42004 15.48 6.27226 14.8736 7.08502V13.3443H12.3039V4.10843H14.5241ZM9.54887 1.81819L7.04083 2.36706L7.03055 10.8218C7.03055 12.384 8.1715 13.5345 9.69277 13.5345C10.5356 13.5345 11.1524 13.3762 11.4916 13.1862V11.0435C11.1626 11.1807 9.53859 11.6663 9.53859 10.1041V6.35696H11.4916V4.10868H9.53859L9.54887 1.81819ZM3.47425 6.21962C2.92947 6.21962 2.60055 6.37795 2.60055 6.78961C2.60055 7.23907 3.16663 7.43678 3.86892 7.68207C5.01382 8.08195 6.5207 8.60826 6.52707 10.5578C6.52707 12.4472 5.0572 13.5344 2.91919 13.5344C2.03521 13.5344 1.069 13.355 0.113067 12.9328V10.4206C0.976491 10.9062 2.06605 11.265 2.91919 11.265C3.49481 11.265 3.90597 11.1067 3.90597 10.6212C3.90597 10.1233 3.29232 9.89575 2.55149 9.62101C1.42324 9.20261 0 8.67482 0 6.91627C0 5.04798 1.38765 3.92912 3.47425 3.92912C4.3274 3.92912 5.17026 4.06634 6.02341 4.41466V6.89516C5.24222 6.46239 4.25545 6.21962 3.47425 6.21962Z" fill="#FEFEFE"/>
</svg>