<svg width="24" height="24" viewBox="0 0 24 24" fill="none" xmlns="http://www.w3.org/2000/svg">
<path d="M12.5225 3.55882V2.5" stroke="#BF4D20" stroke-linecap="round" stroke-linejoin="round"/>
<path d="M7.75706 7.79492H6.69824" stroke="#BF4D20" stroke-linecap="round" stroke-linejoin="round"/>
<path d="M18.3459 7.79492H17.2871" stroke="#BF4D20" stroke-linecap="round" stroke-linejoin="round"/>
<path d="M9.34603 4.61849L8.59733 3.86979" stroke="#BF4D20" stroke-linecap="round" stroke-linejoin="round"/>
<path d="M15.6989 4.61849L16.4476 3.86979" stroke="#BF4D20" stroke-linecap="round" stroke-linejoin="round"/>
<path d="M9.25 12.3867V20.5002" stroke="#BF4D20" stroke-linecap="round" stroke-linejoin="round"/>
<path d="M14.6689 12.3867H16.9164C17.5617 12.3867 18.1721 12.6793 18.5764 13.1822C18.9807 13.6851 19.1351 14.3442 18.9964 14.9744L18.1481 18.8283C17.9331 19.8047 17.0679 20.5002 16.0681 20.5002" stroke="#BF4D20" stroke-linecap="round" stroke-linejoin="round"/>
<path d="M16.0682 20.5002H6.26803C5.6799 20.5002 5.20312 20.0234 5.20312 19.4353V13.4516C5.20313 12.8635 5.6799 12.3867 6.26803 12.3867H9.25987" stroke="#BF4D20" stroke-linecap="round" stroke-linejoin="round"/>
<path d="M14.6689 12.3873V9.43206C14.6689 8.89411 14.3649 8.40236 13.8837 8.16191L13.5244 7.98242C12.6584 7.54971 11.6053 7.89088 11.1576 8.74923L9.25977 12.3873" stroke="#BF4D20" stroke-linecap="round" stroke-linejoin="round"/>
</svg>
