<svg xmlns="http://www.w3.org/2000/svg" width="29" height="11" viewBox="0 0 29 11" fill="none">
  <path fill-rule="evenodd" clip-rule="evenodd" d="M7.3859 9.99318H4.98132L3.17817 2.91175C3.09259 2.58601 2.91087 2.29803 2.64356 2.1623C1.97647 1.82121 1.24137 1.54976 0.439453 1.41285V1.14021H4.31305C4.84766 1.14021 5.24862 1.54976 5.31545 2.02539L6.25102 7.13347L8.65444 1.14021H10.9922L7.3859 9.99318ZM12.3287 9.99318H10.0578L11.9278 1.14021H14.1987L12.3287 9.99318ZM17.1366 3.59226C17.2034 3.11545 17.6044 2.84281 18.0722 2.84281C18.8072 2.77436 19.608 2.91127 20.2763 3.25117L20.6772 1.34509C20.009 1.07245 19.2739 0.935547 18.6068 0.935547C16.4027 0.935547 14.7988 2.16181 14.7988 3.86372C14.7988 5.15844 15.9349 5.83826 16.7368 6.2478C17.6044 6.65616 17.9385 6.9288 17.8717 7.33716C17.8717 7.9497 17.2034 8.22234 16.5363 8.22234C15.7344 8.22234 14.9325 8.01816 14.1986 7.67707L13.7976 9.58433C14.5995 9.92424 15.4671 10.0612 16.269 10.0612C18.7404 10.1284 20.2763 8.90334 20.2763 7.06453C20.2763 4.7489 17.1366 4.61317 17.1366 3.59226ZM28.224 9.99318L26.4209 1.14021H24.4841C24.0831 1.14021 23.6822 1.41285 23.5485 1.82121L20.2095 9.99318H22.5473L23.0139 8.69964H25.8863L26.1536 9.99318H28.224ZM24.8184 3.52424L25.4855 6.86077H23.6156L24.8184 3.52424Z" fill="#FEFEFE"/>
</svg>