<svg xmlns="http://www.w3.org/2000/svg" width="15" height="10" viewBox="0 0 15 10" fill="none">
  <g clip-path="url(#clip0_1284_57232)">
    <path d="M7.63246 0.0878906C9.06976 0.144057 10.5066 0.195178 11.9441 0.259902C12.2838 0.277672 12.6219 0.31791 12.9562 0.380353C13.768 0.526255 14.2869 1.07564 14.4405 1.9313C14.6511 3.104 14.6935 4.28965 14.6535 5.47551C14.6257 6.30463 14.546 7.13287 14.4655 7.95892C14.4065 8.56446 14.1605 9.07918 13.6269 9.4232C13.3011 9.63317 12.9336 9.69394 12.5607 9.73343C11.1185 9.8857 9.67048 9.92036 8.22243 9.91334C6.75507 9.90588 5.28772 9.86178 3.8208 9.81439C3.35128 9.79925 2.88132 9.73892 2.41553 9.67068C1.61669 9.55352 1.07192 9.00502 0.906709 8.18073C0.7415 7.35644 0.703324 6.52249 0.678971 5.68723C0.647157 4.58803 0.681384 3.49037 0.820485 2.39841C0.849814 2.15277 0.894438 1.9092 0.954099 1.66912C1.14322 0.935658 1.74197 0.442443 2.53576 0.342835C3.90351 0.171263 5.27828 0.157003 6.65437 0.133746C6.97974 0.128261 7.30555 0.133746 7.63114 0.133746L7.63246 0.0878906ZM6.28204 2.93002V7.11554L9.91555 5.02267L6.28204 2.93002Z" fill="#ACA7AA"/>
    <path d="M6.28125 2.92969L9.91476 5.02234L6.28125 7.11521V2.92969Z" fill="#130E11"/>
  </g>
  <defs>
    <clipPath id="clip0_1284_57232">
      <rect width="14" height="9.82611" fill="white" transform="translate(0.666016 0.0878906)"/>
    </clipPath>
  </defs>
</svg>